<svg xmlns="http://www.w3.org/2000/svg" version="1.1" xmlns:xlink="http://www.w3.org/1999/xlink" viewBox="0 0 10.231516643301081 5.299422186386914"><g transform="matrix(1,0,0,1,0.6069692591505405,3.4876189428613737)"><g clip-path="url(#SvgjsClipPath1001)"><g clip-path="url(#a40dae321-d7f1-493b-8713-32ed7101daadaae8e09b-47e4-4d55-b5df-4ecf743b6f6f)"><path d=" M 2.991405340685935 -2.6479698921957633 C 2.991405340685935 -2.7764827022162346 2.8905171317637057 -2.8806496837108333 2.7661122092189623 -2.8806496837108333 C 2.641669599633157 -2.8806496837108333 2.5408190777519897 -2.7764827022162346 2.5408190777519897 -2.6479698921957633 C 2.5408190777519897 -2.519475925695823 2.641669599633157 -2.415290100680693 2.7661122092189623 -2.415290100680693 C 2.8905171317637057 -2.415290100680693 2.991405340685935 -2.519475925695823 2.991405340685935 -2.6479698921957633" fill="#ffffff" transform="matrix(1,0,0,1,0,0)" fill-rule="nonzero"></path></g><g clip-path="url(#a40dae321-d7f1-493b-8713-32ed7101daadaae8e09b-47e4-4d55-b5df-4ecf743b6f6f)"><path d=" M 1.5961557064988718 -1.652843572961 C 1.5961557064988718 -1.7625317059711412 1.5100785047138996 -1.8514354358357428 1.4038575794814367 -1.8514354358357428 C 1.297636654248974 -1.8514354358357428 1.2115406089434706 -1.7625317059711412 1.2115406089434706 -1.652843572961 C 1.2115406089434706 -1.5431554399508587 1.297636654248974 -1.4542328665657263 1.4038575794814367 -1.4542328665657263 C 1.5100785047138996 -1.4542328665657263 1.5961557064988718 -1.5431554399508587 1.5961557064988718 -1.652843572961" fill="#ffffff" transform="matrix(1,0,0,1,0,0)" fill-rule="nonzero"></path></g><g clip-path="url(#a40dae321-d7f1-493b-8713-32ed7101daadaae8e09b-47e4-4d55-b5df-4ecf743b6f6f)"><path d=" M 0.7400191946997385 -1.793284331477506 C 0.664927765384258 -1.793284331477506 0.6040631940695773 -1.7304035034660235 0.6040631940695773 -1.6528624164815309 C 0.6040631940695773 -1.5753024859765075 0.664927765384258 -1.5124216579650247 0.7400191946997385 -1.5124216579650247 C 0.8151294675357501 -1.5124216579650247 0.8759940388504307 -1.5753024859765075 0.8759940388504307 -1.6528624164815309 C 0.8759940388504307 -1.7304035034660235 0.8151294675357501 -1.793284331477506 0.7400191946997385 -1.793284331477506" fill="#ffffff" transform="matrix(1,0,0,1,0,0)" fill-rule="nonzero"></path></g><g clip-path="url(#a40dae321-d7f1-493b-8713-32ed7101daadaae8e09b-47e4-4d55-b5df-4ecf743b6f6f)"><path d=" M 7.180338798216841 -2.819577833670313 C 7.164687511356249 -2.836535133663899 7.1426822664022325 -2.846209794569838 7.119606131545876 -2.846279102262543 L 3.4685986546094565 -2.848276515438814 C 3.3406699937254425 -2.848276515438814 3.2369552567235833 -2.741169944741401 3.2369552567235833 -2.6090391787790046 C 3.2369552567235833 -2.476927256337139 3.3406699937254416 -2.3698206856397253 3.4685986546094565 -2.3698206856397253 L 3.651456177840931 -2.3698206856397253 C 3.779384838724945 -2.3698206856397253 3.8830995757268036 -2.2627141149423124 3.8830995757268036 -2.1305833489799157 C 3.8830995757268036 -1.9984525830175195 3.7793848387249454 -1.8913460123201062 3.651456177840931 -1.8913460123201062 L 2.0740085436409736 -1.8913460123201062 C 1.9460987262774898 -1.8913460123201062 1.8423839892756322 -1.784239441622693 1.8423839892756322 -1.6521086756602963 C 1.8423839892756322 -1.5199967532184306 1.9460987262774911 -1.4128901825210174 2.0740085436409736 -1.4128901825210174 L 2.6134231623573974 -1.4128901825210174 C 2.7413518232414114 -1.4128901825210174 2.8450665602432705 -1.3057836118236044 2.8450665602432705 -1.1736528458612077 C 2.8450665602432705 -1.041522079898811 2.7413518232414122 -0.9344155092013979 2.6134231623573974 -0.9344155092013979 L 2.4637490787807694 -0.9344155092013979 C 2.335801574376224 -0.9344155092013979 2.232086837374366 -0.8273089385039847 2.232086837374366 -0.695197016062119 C 2.232086837374366 -0.5630662500997223 2.3358015743762244 -0.4559596794023091 2.4637490787807703 -0.4559596794023091 L 4.829440020307168 -0.457768657373272 C 4.841141846556833 -0.338583390015577 4.9334939406785825 -0.24999999999999956 5.0629300832050665 -0.24999999999999956 C 5.192347382211018 -0.24999999999999956 5.31452876933312 -0.3385833900155766 5.366367294313519 -0.45776865737327155 L 5.905178920372954 -0.45776865737327155 C 5.920781355372507 -0.3385833900155766 6.016035351656009 -0.24999999999999956 6.145471494182492 -0.24999999999999956 C 6.274888793188445 -0.24999999999999956 6.394187121669326 -0.3385833900155766 6.442125037899836 -0.45776865737327155 L 6.853592152211713 -0.45776865737327155 C 6.892918579559621 -0.45776865737327155 6.9270065081999475 -0.48586434648478516 6.935749901726267 -0.525454583120124 C 7.095279146540535 -1.24944148543633 7.170445949938138 -1.8747825577734794 7.203798981277762 -2.7558678907554723 C 7.20475239545057 -2.7793777589593356 7.196311384038738 -2.8023006983837564 7.180338798216841 -2.8195778336703134 M 5.208326687621188 -0.5363084509458997 C 5.205726281787928 -0.5045948058924612 5.189087453159178 -0.4762918380551078 5.165175025605516 -0.45776865737327155 C 5.14708524589589 -0.44373023457778027 5.124868735190005 -0.43528833737995454 5.101408552129083 -0.43528833737995454 C 5.077910682027099 -0.43528833737995454 5.057107435361029 -0.44373023457778027 5.041391939238291 -0.45776865737327155 C 5.020645223133813 -0.4762918380551078 5.008773805199371 -0.5045948058924612 5.011562646237938 -0.5363084509458997 C 5.015463254987826 -0.5809675946040405 5.0471957435617965 -0.6186923227068237 5.087633938621024 -0.6317697259552411 C 5.097574827593574 -0.6350226349411288 5.107964721926419 -0.6366949373949464 5.118424251168451 -0.6367255718548575 C 5.129033153227325 -0.6367255718548575 5.1390767496702745 -0.6349542809249566 5.14838544881252 -0.6317697259552411 C 5.186600108449105 -0.6186923227068237 5.211963487083644 -0.5809675946040405 5.208326687621188 -0.5363084509458997 M 6.240913925671302 -0.45776865737327155 C 6.223058942009512 -0.4433341722607258 6.200823056052846 -0.43540607544473575 6.177863505975042 -0.43528833737995454 C 6.155569591582297 -0.4351741921710621 6.133993394660389 -0.4431631440418986 6.117149682824608 -0.45776865737327155 C 6.095781130542612 -0.4762918380551078 6.0830052236226875 -0.5045948058924612 6.084719983990997 -0.5363084509458997 C 6.087188485180539 -0.5809675946040405 6.1176584578789415 -0.6186923227068237 6.1576632519659595 -0.6317697259552411 C 6.1675501111037825 -0.6350315255210046 6.177891818995398 -0.636704261791297 6.188302816349139 -0.6367255718548575 C 6.198892874887482 -0.6367255718548575 6.2090118454125545 -0.6349542809249566 6.218414762157455 -0.6317697259552411 C 6.25706282276625 -0.6186923227068237 6.283651030235295 -0.5809675946040405 6.281465181853715 -0.5363084509458997 C 6.279858041188441 -0.5055188219079629 6.265085750955718 -0.4769078062527643 6.240913925671302 -0.45776865737327155 M 6.7861888792728235 -0.6317697259552406 L 6.456954888557623 -0.6317697259552406 C 6.431101578389281 -0.7377645289413333 6.339427851006643 -0.8123848702435428 6.221731221770885 -0.8123848702435428 C 6.1040534360556595 -0.8123848702435428 5.992122924102346 -0.7377645289413337 5.937514401603911 -0.6317697259552406 L 5.3869444187332185 -0.6317697259552406 C 5.364539472822025 -0.7377645289413333 5.275315403108398 -0.8123848702435428 5.157618773872641 -0.8123848702435428 C 5.039940988157414 -0.8123848702435428 4.925560818535089 -0.7377645289413337 4.867485088258976 -0.6317697259552406 L 4.6597164308857035 -0.6317697259552406 C 4.784893937772212 -1.3002059297464688 4.911955796711807 -1.9894265366832369 4.9396557718921725 -2.6722780336805734 L 5.67724769603166 -2.6722780336805734 L 5.635132427645186 -2.0424145164160175 L 6.176921329948498 -2.0424145164160175 L 6.202699266034716 -2.6722780336805734 L 7.0318330129131255 -2.6722780336805734 C 6.998385763970847 -1.8770437802371827 6.927854466623835 -1.291424849179088 6.7861888792728235 -0.6317697259552406" fill="#ffffff" transform="matrix(1,0,0,1,0,0)" fill-rule="nonzero"></path></g><g clip-path="url(#a40dae321-d7f1-493b-8713-32ed7101daadaae8e09b-47e4-4d55-b5df-4ecf743b6f6f)"><path d=" M 8.295422969151064 -1.4114957620017339 C 8.269324693215822 -1.45168899129406 8.244658524840926 -1.4896586851637448 8.226719493295544 -1.5266485159658247 C 8.176086953629122 -1.631060463227325 8.074162351077696 -1.6959387044150787 7.960705513961382 -1.6959387044150787 L 7.2839781611365755 -1.6959387044150787 C 7.238960990588348 -1.6959387044150787 7.202065377388922 -1.6589677171335298 7.200765174472294 -1.612480751983896 C 7.1910607613989 -1.2712057516494746 7.12539109234885 -0.9206032086522768 7.061888428159849 -0.5815517437404969 L 7.056310746082714 -0.5517789813017369 C 7.051560613866654 -0.5266747124771567 7.057948493665799 -0.5007450087930083 7.073816376655883 -0.48072006537986045 C 7.089352757833785 -0.4610757953785627 7.11298980124315 -0.44957631827388944 7.138035094625057 -0.4494775083396929 L 7.321929011485729 -0.4494775083396929 C 7.3598044877527595 -0.35039827738842666 7.453588689434854 -0.2803380680546854 7.567290492318069 -0.2803380680546854 C 7.680954608160221 -0.2803380680546854 7.7797134992624635 -0.35039827738842666 7.824598765166974 -0.4494775083396929 L 8.225777317269003 -0.4494775083396929 C 8.264651500124168 -0.4494775083396929 8.298343714833347 -0.47725285760218217 8.306974047236482 -0.5163720062242492 C 8.344039252120684 -0.684606957523775 8.385438466726987 -0.8844801797946167 8.411404838018512 -1.0914385657850614 C 8.426291219237893 -1.2100396840063 8.359754748243423 -1.312454218091529 8.295422969151064 -1.4114957620017339 M 7.574111846750241 -0.4634594005735919 C 7.520596248442596 -0.4634594005735919 7.477708395714356 -0.5082504488754482 7.478349075412405 -0.5633112158666238 C 7.478583857437152 -0.5841785160410962 7.485220674413504 -0.6044704688379672 7.4973621876280445 -0.6214434767043318 C 7.515150471009177 -0.6463169238050659 7.543698404613431 -0.6625411949821371 7.575807763598018 -0.6625411949821371 C 7.6078982790620735 -0.6625411949821371 7.636163559858366 -0.6463169238050659 7.653537285787819 -0.6214434767043295 C 7.664918772188459 -0.6051061444040733 7.671683596059038 -0.5850754820797679 7.6715516914153215 -0.5633112158666238 C 7.671250195086828 -0.5082504488754482 7.627627445057885 -0.4634594005735919 7.574111846750241 -0.4634594005735919 M 8.246768999140382 -1.126600575095648 C 8.246923959369264 -1.1222348554067754 8.246753898315834 -1.1178636564779139 8.246260224086049 -1.1135231718472312 C 8.224514801393436 -0.9402004700043722 8.191255987656465 -0.7705899417060933 8.15918431571294 -0.6214434767043295 L 7.845270107189329 -0.6214434767043295 C 7.821338836115134 -0.7450004408251845 7.715400563690636 -0.8361465496329585 7.586925440711225 -0.8361465496329585 C 7.458450317731816 -0.8361465496329585 7.3460675612857615 -0.745000440825184 7.3134117402057806 -0.6214434767043295 L 7.238942147067817 -0.6214434767043295 C 7.294115975182179 -0.917362123120969 7.347951913338848 -1.2211196740784462 7.363799314105302 -1.5239727360504425 L 7.777094249908674 -1.5239727360504425 L 7.777094249908674 -1.3415674573117091 C 7.777094249908674 -1.2228532779672854 7.870275458933781 -1.126600575095648 7.985239777692563 -1.126600575095648" fill="#ffffff" transform="matrix(1,0,0,1,0,0)" fill-rule="nonzero"></path></g></g><g><path d=" M 1.237060546875 0.80859375 Q 1.237060546875 0.879638671875 1.218017578125 0.936767578125 Q 1.198974609375 0.993896484375 1.16455078125 1.0382080078125 Q 1.130126953125 1.08251953125 1.0821533203125 1.114013671875 Q 1.0341796875 1.1455078125 0.97705078125 1.1656494140625 Q 0.919921875 1.185791015625 0.85546875 1.1953125 Q 0.791015625 1.204833984375 0.722900390625 1.204833984375 Q 0.6416015625 1.204833984375 0.56689453125 1.1953125 Q 0.4921875 1.185791015625 0.4273681640625 1.165283203125 Q 0.362548828125 1.144775390625 0.309814453125 1.11328125 Q 0.257080078125 1.081787109375 0.2193603515625 1.037109375 Q 0.181640625 0.992431640625 0.1611328125 0.9349365234375 Q 0.140625 0.87744140625 0.140625 0.8056640625 L 0.140625 0.32666015625 Q 0.140625 0.29443359375 0.1318359375 0.2764892578125 Q 0.123046875 0.258544921875 0.1102294921875 0.2493896484375 Q 0.097412109375 0.240234375 0.0823974609375 0.236572265625 Q 0.0673828125 0.23291015625 0.0545654296875 0.2288818359375 Q 0.041748046875 0.224853515625 0.032958984375 0.2171630859375 Q 0.024169921875 0.20947265625 0.024169921875 0.19189453125 Q 0.024169921875 0.146484375 0.0479736328125 0.1138916015625 Q 0.07177734375 0.081298828125 0.1175537109375 0.0604248046875 Q 0.163330078125 0.03955078125 0.2303466796875 0.0296630859375 Q 0.29736328125 0.019775390625 0.3837890625 0.019775390625 Q 0.47314453125 0.019775390625 0.5419921875 0.0296630859375 Q 0.61083984375 0.03955078125 0.6573486328125 0.0604248046875 Q 0.703857421875 0.081298828125 0.7276611328125 0.1138916015625 Q 0.75146484375 0.146484375 0.75146484375 0.19189453125 Q 0.75146484375 0.20947265625 0.74267578125 0.2171630859375 Q 0.73388671875 0.224853515625 0.7210693359375 0.2288818359375 Q 0.708251953125 0.23291015625 0.69287109375 0.2362060546875 Q 0.677490234375 0.239501953125 0.6646728515625 0.248291015625 Q 0.65185546875 0.257080078125 0.64306640625 0.2750244140625 Q 0.63427734375 0.29296875 0.63427734375 0.3251953125 L 0.63427734375 0.8056640625 Q 0.63427734375 0.85693359375 0.64892578125 0.892822265625 Q 0.66357421875 0.9287109375 0.68994140625 0.951416015625 Q 0.71630859375 0.97412109375 0.7525634765625 0.984375 Q 0.788818359375 0.99462890625 0.83203125 0.99462890625 Q 0.872314453125 0.99462890625 0.9071044921875 0.9840087890625 Q 0.94189453125 0.973388671875 0.967529296875 0.95068359375 Q 0.9931640625 0.927978515625 1.0081787109375 0.89208984375 Q 1.023193359375 0.856201171875 1.023193359375 0.8056640625 L 1.023193359375 0.32666015625 Q 1.023193359375 0.29443359375 1.014404296875 0.2764892578125 Q 1.005615234375 0.258544921875 0.9927978515625 0.2493896484375 Q 0.97998046875 0.240234375 0.964599609375 0.236572265625 Q 0.94921875 0.23291015625 0.9364013671875 0.2288818359375 Q 0.923583984375 0.224853515625 0.914794921875 0.2171630859375 Q 0.906005859375 0.20947265625 0.906005859375 0.19189453125 Q 0.906005859375 0.146484375 0.927978515625 0.1138916015625 Q 0.949951171875 0.081298828125 0.983642578125 0.0604248046875 Q 1.017333984375 0.03955078125 1.0576171875 0.0296630859375 Q 1.097900390625 0.019775390625 1.13525390625 0.019775390625 Q 1.168212890625 0.019775390625 1.2066650390625 0.0296630859375 Q 1.2451171875 0.03955078125 1.278076171875 0.0604248046875 Q 1.31103515625 0.081298828125 1.3326416015625 0.1138916015625 Q 1.354248046875 0.146484375 1.354248046875 0.19189453125 Q 1.354248046875 0.20947265625 1.345458984375 0.2171630859375 Q 1.336669921875 0.224853515625 1.323486328125 0.229248046875 Q 1.310302734375 0.233642578125 1.294921875 0.2373046875 Q 1.279541015625 0.240966796875 1.266357421875 0.25048828125 Q 1.253173828125 0.260009765625 1.244384765625 0.2783203125 Q 1.235595703125 0.296630859375 1.235595703125 0.330322265625 L 1.237060546875 0.80859375 M 1.768798828125 0.6181640625 Q 1.763671875 0.614501953125 1.7607421875 0.614501953125 Q 1.754150390625 0.614501953125 1.754150390625 0.621826171875 Q 1.754150390625 0.6240234375 1.7548828125 0.62548828125 L 1.7548828125 0.8759765625 Q 1.7548828125 0.908935546875 1.763671875 0.92724609375 Q 1.7724609375 0.945556640625 1.78564453125 0.955078125 Q 1.798828125 0.964599609375 1.814208984375 0.96826171875 Q 1.82958984375 0.971923828125 1.8427734375 0.976318359375 Q 1.85595703125 0.980712890625 1.86474609375 0.9884033203125 Q 1.87353515625 0.99609375 1.87353515625 1.013671875 Q 1.87353515625 1.05908203125 1.8533935546875 1.092041015625 Q 1.833251953125 1.125 1.8017578125 1.1458740234375 Q 1.770263671875 1.166748046875 1.7310791015625 1.1766357421875 Q 1.69189453125 1.1865234375 1.654541015625 1.1865234375 Q 1.610595703125 1.1865234375 1.5692138671875 1.1766357421875 Q 1.52783203125 1.166748046875 1.4959716796875 1.1458740234375 Q 1.464111328125 1.125 1.4447021484375 1.092041015625 Q 1.42529296875 1.05908203125 1.42529296875 1.013671875 Q 1.42529296875 0.99609375 1.43408203125 0.9884033203125 Q 1.44287109375 0.980712890625 1.4556884765625 0.9766845703125 Q 1.468505859375 0.97265625 1.4835205078125 0.968994140625 Q 1.49853515625 0.96533203125 1.5113525390625 0.9561767578125 Q 1.524169921875 0.947021484375 1.532958984375 0.929443359375 Q 1.541748046875 0.911865234375 1.541748046875 0.87890625 L 1.541748046875 0.32666015625 Q 1.541748046875 0.29443359375 1.532958984375 0.2764892578125 Q 1.524169921875 0.258544921875 1.5113525390625 0.2493896484375 Q 1.49853515625 0.240234375 1.4835205078125 0.236572265625 Q 1.468505859375 0.23291015625 1.4556884765625 0.2288818359375 Q 1.44287109375 0.224853515625 1.43408203125 0.2171630859375 Q 1.42529296875 0.20947265625 1.42529296875 0.19189453125 Q 1.42529296875 0.146484375 1.443603515625 0.1138916015625 Q 1.4619140625 0.081298828125 1.4937744140625 0.0604248046875 Q 1.525634765625 0.03955078125 1.56884765625 0.0296630859375 Q 1.612060546875 0.019775390625 1.661865234375 0.019775390625 Q 1.699951171875 0.019775390625 1.7274169921875 0.0260009765625 Q 1.7548828125 0.0322265625 1.7794189453125 0.0465087890625 Q 1.803955078125 0.060791015625 1.8310546875 0.0849609375 Q 1.858154296875 0.109130859375 1.896240234375 0.144287109375 L 2.31591796875 0.535400390625 Q 2.3173828125 0.536865234375 2.3199462890625 0.538330078125 Q 2.322509765625 0.539794921875 2.326171875 0.539794921875 Q 2.33056640625 0.539794921875 2.3345947265625 0.5357666015625 Q 2.338623046875 0.53173828125 2.338623046875 0.519287109375 L 2.338623046875 0.330322265625 Q 2.338623046875 0.296630859375 2.329833984375 0.2783203125 Q 2.321044921875 0.260009765625 2.307861328125 0.25048828125 Q 2.294677734375 0.240966796875 2.279296875 0.2373046875 Q 2.263916015625 0.233642578125 2.250732421875 0.229248046875 Q 2.237548828125 0.224853515625 2.228759765625 0.2171630859375 Q 2.219970703125 0.20947265625 2.219970703125 0.19189453125 Q 2.219970703125 0.146484375 2.2401123046875 0.1138916015625 Q 2.26025390625 0.081298828125 2.291748046875 0.0604248046875 Q 2.3232421875 0.03955078125 2.3624267578125 0.0296630859375 Q 2.401611328125 0.019775390625 2.43896484375 0.019775390625 Q 2.48291015625 0.019775390625 2.5242919921875 0.0296630859375 Q 2.565673828125 0.03955078125 2.5975341796875 0.0604248046875 Q 2.62939453125 0.081298828125 2.6488037109375 0.1138916015625 Q 2.668212890625 0.146484375 2.668212890625 0.19189453125 Q 2.668212890625 0.20947265625 2.6597900390625 0.2171630859375 Q 2.6513671875 0.224853515625 2.6385498046875 0.2288818359375 Q 2.625732421875 0.23291015625 2.6107177734375 0.236572265625 Q 2.595703125 0.240234375 2.5828857421875 0.2493896484375 Q 2.570068359375 0.258544921875 2.5616455078125 0.2764892578125 Q 2.55322265625 0.29443359375 2.55322265625 0.32666015625 L 2.55322265625 1.029052734375 Q 2.55322265625 1.077392578125 2.545166015625 1.108154296875 Q 2.537109375 1.138916015625 2.5220947265625 1.1561279296875 Q 2.507080078125 1.17333984375 2.4862060546875 1.179931640625 Q 2.46533203125 1.1865234375 2.4404296875 1.1865234375 Q 2.4228515625 1.1865234375 2.40380859375 1.17919921875 Q 2.384765625 1.171875 2.363525390625 1.1575927734375 Q 2.34228515625 1.143310546875 2.316650390625 1.1220703125 Q 2.291015625 1.100830078125 2.26025390625 1.07373046875 L 1.768798828125 0.6181640625 M 3.35302734375 0.8759765625 Q 3.35302734375 0.908935546875 3.36181640625 0.92724609375 Q 3.37060546875 0.945556640625 3.3837890625 0.955078125 Q 3.39697265625 0.964599609375 3.412353515625 0.96826171875 Q 3.427734375 0.971923828125 3.44091796875 0.976318359375 Q 3.4541015625 0.980712890625 3.462890625 0.9884033203125 Q 3.4716796875 0.99609375 3.4716796875 1.013671875 Q 3.4716796875 1.105224609375 3.377197265625 1.1458740234375 Q 3.28271484375 1.1865234375 3.10400390625 1.1865234375 Q 3.017578125 1.1865234375 2.9505615234375 1.1766357421875 Q 2.883544921875 1.166748046875 2.8377685546875 1.1458740234375 Q 2.7919921875 1.125 2.7681884765625 1.092041015625 Q 2.744384765625 1.05908203125 2.744384765625 1.013671875 Q 2.744384765625 0.99609375 2.753173828125 0.9884033203125 Q 2.761962890625 0.980712890625 2.7747802734375 0.9766845703125 Q 2.78759765625 0.97265625 2.8026123046875 0.968994140625 Q 2.817626953125 0.96533203125 2.8304443359375 0.9561767578125 Q 2.84326171875 0.947021484375 2.85205078125 0.929443359375 Q 2.86083984375 0.911865234375 2.86083984375 0.87890625 L 2.86083984375 0.32666015625 Q 2.86083984375 0.29443359375 2.85205078125 0.2764892578125 Q 2.84326171875 0.258544921875 2.8304443359375 0.2493896484375 Q 2.817626953125 0.240234375 2.8026123046875 0.236572265625 Q 2.78759765625 0.23291015625 2.7747802734375 0.2288818359375 Q 2.761962890625 0.224853515625 2.753173828125 0.2171630859375 Q 2.744384765625 0.20947265625 2.744384765625 0.19189453125 Q 2.744384765625 0.146484375 2.7681884765625 0.1138916015625 Q 2.7919921875 0.081298828125 2.8377685546875 0.0604248046875 Q 2.883544921875 0.03955078125 2.9505615234375 0.0296630859375 Q 3.017578125 0.019775390625 3.10400390625 0.019775390625 Q 3.193359375 0.019775390625 3.26220703125 0.0296630859375 Q 3.3310546875 0.03955078125 3.3775634765625 0.0604248046875 Q 3.424072265625 0.081298828125 3.4478759765625 0.1138916015625 Q 3.4716796875 0.146484375 3.4716796875 0.19189453125 Q 3.4716796875 0.20947265625 3.462890625 0.2171630859375 Q 3.4541015625 0.224853515625 3.4412841796875 0.2288818359375 Q 3.428466796875 0.23291015625 3.4130859375 0.236572265625 Q 3.397705078125 0.240234375 3.3848876953125 0.2493896484375 Q 3.3720703125 0.258544921875 3.36328125 0.2764892578125 Q 3.3544921875 0.29443359375 3.3544921875 0.32666015625 L 3.35302734375 0.8759765625 M 4.222412109375 0.23583984375 Q 4.222412109375 0.21533203125 4.1854248046875 0.198486328125 Q 4.1484375 0.181640625 4.072265625 0.181640625 Q 4.01953125 0.181640625 3.98876953125 0.18896484375 Q 3.9580078125 0.1962890625 3.9422607421875 0.2083740234375 Q 3.926513671875 0.220458984375 3.922119140625 0.2354736328125 Q 3.917724609375 0.25048828125 3.917724609375 0.265869140625 Q 3.917724609375 0.29736328125 3.9473876953125 0.3211669921875 Q 3.97705078125 0.344970703125 4.0257568359375 0.3662109375 Q 4.074462890625 0.387451171875 4.13671875 0.40869140625 Q 4.198974609375 0.429931640625 4.26416015625 0.4559326171875 Q 4.329345703125 0.48193359375 4.3916015625 0.515625 Q 4.453857421875 0.54931640625 4.5025634765625 0.5947265625 Q 4.55126953125 0.64013671875 4.5809326171875 0.700927734375 Q 4.610595703125 0.76171875 4.610595703125 0.841552734375 Q 4.610595703125 0.944091796875 4.571044921875 1.013671875 Q 4.531494140625 1.083251953125 4.4608154296875 1.125732421875 Q 4.39013671875 1.168212890625 4.2930908203125 1.1865234375 Q 4.196044921875 1.204833984375 4.0810546875 1.204833984375 Q 4.013671875 1.204833984375 3.947021484375 1.194580078125 Q 3.88037109375 1.184326171875 3.8203125 1.1649169921875 Q 3.76025390625 1.1455078125 3.7086181640625 1.1173095703125 Q 3.656982421875 1.089111328125 3.6192626953125 1.0535888671875 Q 3.58154296875 1.01806640625 3.5599365234375 0.9752197265625 Q 3.538330078125 0.932373046875 3.538330078125 0.88330078125 Q 3.538330078125 0.845947265625 3.550048828125 0.818115234375 Q 3.561767578125 0.790283203125 3.5811767578125 0.7723388671875 Q 3.6005859375 0.75439453125 3.62548828125 0.74560546875 Q 3.650390625 0.73681640625 3.677490234375 0.73681640625 Q 3.71044921875 0.73681640625 3.743408203125 0.749267578125 Q 3.7763671875 0.76171875 3.802734375 0.785888671875 Q 3.8291015625 0.81005859375 3.8455810546875 0.84521484375 Q 3.862060546875 0.88037109375 3.862060546875 0.92578125 Q 3.862060546875 0.936767578125 3.8726806640625 0.94921875 Q 3.88330078125 0.961669921875 3.9034423828125 0.9722900390625 Q 3.923583984375 0.98291015625 3.95361328125 0.990234375 Q 3.983642578125 0.99755859375 4.0224609375 0.99755859375 Q 4.07666015625 0.99755859375 4.10888671875 0.9906005859375 Q 4.14111328125 0.983642578125 4.1583251953125 0.971923828125 Q 4.175537109375 0.960205078125 4.1806640625 0.945556640625 Q 4.185791015625 0.930908203125 4.185791015625 0.916259765625 Q 4.185791015625 0.89794921875 4.15869140625 0.884033203125 Q 4.131591796875 0.8701171875 4.087646484375 0.8558349609375 Q 4.043701171875 0.841552734375 3.9869384765625 0.825439453125 Q 3.93017578125 0.809326171875 3.87158203125 0.7869873046875 Q 3.81298828125 0.7646484375 3.7562255859375 0.73388671875 Q 3.699462890625 0.703125 3.655517578125 0.6595458984375 Q 3.611572265625 0.615966796875 3.58447265625 0.5577392578125 Q 3.557373046875 0.49951171875 3.557373046875 0.421875 Q 3.557373046875 0.344970703125 3.5760498046875 0.2841796875 Q 3.5947265625 0.223388671875 3.6287841796875 0.176513671875 Q 3.662841796875 0.129638671875 3.71044921875 0.0963134765625 Q 3.758056640625 0.06298828125 3.8162841796875 0.0413818359375 Q 3.87451171875 0.019775390625 3.9415283203125 0.0098876953125 Q 4.008544921875 0 4.0810546875 0 Q 4.210693359375 0 4.3018798828125 0.0260009765625 Q 4.39306640625 0.052001953125 4.4501953125 0.093017578125 Q 4.50732421875 0.134033203125 4.5333251953125 0.1842041015625 Q 4.559326171875 0.234375 4.559326171875 0.281982421875 Q 4.559326171875 0.3251953125 4.541015625 0.356689453125 Q 4.522705078125 0.38818359375 4.493408203125 0.40869140625 Q 4.464111328125 0.42919921875 4.4267578125 0.438720703125 Q 4.389404296875 0.4482421875 4.351318359375 0.4482421875 Q 4.314697265625 0.4482421875 4.2799072265625 0.440185546875 Q 4.2451171875 0.43212890625 4.2183837890625 0.416015625 Q 4.191650390625 0.39990234375 4.1751708984375 0.3768310546875 Q 4.15869140625 0.353759765625 4.15869140625 0.32373046875 Q 4.15869140625 0.3017578125 4.1685791015625 0.290771484375 Q 4.178466796875 0.27978515625 4.1905517578125 0.2724609375 Q 4.20263671875 0.26513671875 4.2125244140625 0.2578125 Q 4.222412109375 0.25048828125 4.222412109375 0.23583984375 M 5.628662109375 0.652587890625 L 5.29833984375 0.652587890625 L 5.29833984375 0.8759765625 Q 5.29833984375 0.908935546875 5.3074951171875 0.92724609375 Q 5.316650390625 0.945556640625 5.329833984375 0.955078125 Q 5.343017578125 0.964599609375 5.3583984375 0.96826171875 Q 5.373779296875 0.971923828125 5.3865966796875 0.976318359375 Q 5.3994140625 0.980712890625 5.408203125 0.9884033203125 Q 5.4169921875 0.99609375 5.4169921875 1.013671875 Q 5.4169921875 1.105224609375 5.322509765625 1.1458740234375 Q 5.22802734375 1.1865234375 5.04931640625 1.1865234375 Q 4.962890625 1.1865234375 4.8958740234375 1.1766357421875 Q 4.828857421875 1.166748046875 4.7830810546875 1.1458740234375 Q 4.7373046875 1.125 4.7135009765625 1.092041015625 Q 4.689697265625 1.05908203125 4.689697265625 1.013671875 Q 4.689697265625 0.99609375 4.698486328125 0.9884033203125 Q 4.707275390625 0.980712890625 4.7200927734375 0.9766845703125 Q 4.73291015625 0.97265625 4.7479248046875 0.968994140625 Q 4.762939453125 0.96533203125 4.7757568359375 0.9561767578125 Q 4.78857421875 0.947021484375 4.79736328125 0.929443359375 Q 4.80615234375 0.911865234375 4.80615234375 0.87890625 L 4.80615234375 0.32666015625 Q 4.80615234375 0.29443359375 4.79736328125 0.2764892578125 Q 4.78857421875 0.258544921875 4.7757568359375 0.2493896484375 Q 4.762939453125 0.240234375 4.7479248046875 0.236572265625 Q 4.73291015625 0.23291015625 4.7200927734375 0.2288818359375 Q 4.707275390625 0.224853515625 4.698486328125 0.2171630859375 Q 4.689697265625 0.20947265625 4.689697265625 0.19189453125 Q 4.689697265625 0.146484375 4.7135009765625 0.1138916015625 Q 4.7373046875 0.081298828125 4.7830810546875 0.0604248046875 Q 4.828857421875 0.03955078125 4.8958740234375 0.0296630859375 Q 4.962890625 0.019775390625 5.04931640625 0.019775390625 Q 5.138671875 0.019775390625 5.20751953125 0.0296630859375 Q 5.2763671875 0.03955078125 5.3228759765625 0.0604248046875 Q 5.369384765625 0.081298828125 5.3931884765625 0.1138916015625 Q 5.4169921875 0.146484375 5.4169921875 0.19189453125 Q 5.4169921875 0.20947265625 5.408203125 0.2171630859375 Q 5.3994140625 0.224853515625 5.3865966796875 0.2288818359375 Q 5.373779296875 0.23291015625 5.3583984375 0.236572265625 Q 5.343017578125 0.240234375 5.3302001953125 0.2493896484375 Q 5.3173828125 0.258544921875 5.30859375 0.2764892578125 Q 5.2998046875 0.29443359375 5.2998046875 0.32666015625 L 5.2998046875 0.51123046875 L 5.628662109375 0.51123046875 L 5.628662109375 0.32666015625 Q 5.628662109375 0.29443359375 5.619873046875 0.2764892578125 Q 5.611083984375 0.258544921875 5.5982666015625 0.2493896484375 Q 5.58544921875 0.240234375 5.570068359375 0.236572265625 Q 5.5546875 0.23291015625 5.5418701171875 0.2288818359375 Q 5.529052734375 0.224853515625 5.520263671875 0.2171630859375 Q 5.511474609375 0.20947265625 5.511474609375 0.19189453125 Q 5.511474609375 0.10107421875 5.6055908203125 0.0604248046875 Q 5.69970703125 0.019775390625 5.879150390625 0.019775390625 Q 6.0556640625 0.019775390625 6.1494140625 0.0604248046875 Q 6.2431640625 0.10107421875 6.2431640625 0.19189453125 Q 6.2431640625 0.20947265625 6.2340087890625 0.2171630859375 Q 6.224853515625 0.224853515625 6.2113037109375 0.2288818359375 Q 6.19775390625 0.23291015625 6.181640625 0.236572265625 Q 6.16552734375 0.240234375 6.1519775390625 0.2493896484375 Q 6.138427734375 0.258544921875 6.1292724609375 0.2764892578125 Q 6.1201171875 0.29443359375 6.1201171875 0.32666015625 L 6.1201171875 0.8759765625 Q 6.1201171875 0.908935546875 6.1292724609375 0.92724609375 Q 6.138427734375 0.945556640625 6.1519775390625 0.955078125 Q 6.16552734375 0.964599609375 6.181640625 0.96826171875 Q 6.19775390625 0.971923828125 6.2113037109375 0.976318359375 Q 6.224853515625 0.980712890625 6.2340087890625 0.9884033203125 Q 6.2431640625 0.99609375 6.2431640625 1.013671875 Q 6.2431640625 1.05908203125 6.2193603515625 1.092041015625 Q 6.195556640625 1.125 6.1494140625 1.1458740234375 Q 6.103271484375 1.166748046875 6.03515625 1.1766357421875 Q 5.967041015625 1.1865234375 5.879150390625 1.1865234375 Q 5.789794921875 1.1865234375 5.720947265625 1.1766357421875 Q 5.652099609375 1.166748046875 5.6055908203125 1.1458740234375 Q 5.55908203125 1.125 5.5352783203125 1.092041015625 Q 5.511474609375 1.05908203125 5.511474609375 1.013671875 Q 5.511474609375 0.99609375 5.520263671875 0.9884033203125 Q 5.529052734375 0.980712890625 5.5418701171875 0.976318359375 Q 5.5546875 0.971923828125 5.570068359375 0.96826171875 Q 5.58544921875 0.964599609375 5.5982666015625 0.955078125 Q 5.611083984375 0.945556640625 5.619873046875 0.9276123046875 Q 5.628662109375 0.90966796875 5.628662109375 0.8759765625 L 5.628662109375 0.652587890625 M 6.9228515625 1.204833984375 Q 6.812255859375 1.204833984375 6.722900390625 1.1832275390625 Q 6.633544921875 1.16162109375 6.564697265625 1.122802734375 Q 6.495849609375 1.083984375 6.446044921875 1.030517578125 Q 6.396240234375 0.97705078125 6.364013671875 0.913330078125 Q 6.331787109375 0.849609375 6.3167724609375 0.7781982421875 Q 6.3017578125 0.706787109375 6.3017578125 0.63134765625 Q 6.3017578125 0.544921875 6.3116455078125 0.4647216796875 Q 6.321533203125 0.384521484375 6.3482666015625 0.314208984375 Q 6.375 0.243896484375 6.422607421875 0.18603515625 Q 6.47021484375 0.128173828125 6.5460205078125 0.0867919921875 Q 6.621826171875 0.04541015625 6.7294921875 0.022705078125 Q 6.837158203125 0 6.984375 0 Q 7.10302734375 0 7.1953125 0.0216064453125 Q 7.28759765625 0.043212890625 7.3568115234375 0.08203125 Q 7.426025390625 0.120849609375 7.4732666015625 0.1739501953125 Q 7.5205078125 0.22705078125 7.5501708984375 0.2896728515625 Q 7.579833984375 0.352294921875 7.5926513671875 0.422607421875 Q 7.60546875 0.492919921875 7.60546875 0.5654296875 Q 7.60546875 0.6474609375 7.5955810546875 0.7269287109375 Q 7.585693359375 0.806396484375 7.5589599609375 0.87744140625 Q 7.5322265625 0.948486328125 7.4842529296875 1.008544921875 Q 7.436279296875 1.068603515625 7.3604736328125 1.1121826171875 Q 7.28466796875 1.15576171875 7.177001953125 1.1802978515625 Q 7.0693359375 1.204833984375 6.9228515625 1.204833984375 M 6.964599609375 1.01220703125 Q 6.99755859375 1.01220703125 7.0184326171875 0.993896484375 Q 7.039306640625 0.9755859375 7.0513916015625 0.941162109375 Q 7.0634765625 0.90673828125 7.0682373046875 0.85693359375 Q 7.072998046875 0.80712890625 7.072998046875 0.744140625 L 7.072998046875 0.711181640625 Q 7.072998046875 0.655517578125 7.072265625 0.5958251953125 Q 7.071533203125 0.5361328125 7.06787109375 0.4786376953125 Q 7.064208984375 0.421142578125 7.0557861328125 0.369873046875 Q 7.04736328125 0.318603515625 7.0323486328125 0.2794189453125 Q 7.017333984375 0.240234375 6.9942626953125 0.217529296875 Q 6.97119140625 0.19482421875 6.9375 0.19482421875 Q 6.903076171875 0.19482421875 6.8818359375 0.2105712890625 Q 6.860595703125 0.226318359375 6.8492431640625 0.2567138671875 Q 6.837890625 0.287109375 6.8338623046875 0.331787109375 Q 6.829833984375 0.37646484375 6.829833984375 0.43505859375 Q 6.829833984375 0.488525390625 6.83056640625 0.55224609375 Q 6.831298828125 0.615966796875 6.8349609375 0.6800537109375 Q 6.838623046875 0.744140625 6.8466796875 0.80419921875 Q 6.854736328125 0.8642578125 6.8697509765625 0.910400390625 Q 6.884765625 0.95654296875 6.9078369140625 0.984375 Q 6.930908203125 1.01220703125 6.964599609375 1.01220703125 M 8.3876953125 0.63427734375 Q 8.42138671875 0.63427734375 8.44189453125 0.6181640625 Q 8.46240234375 0.60205078125 8.47265625 0.5771484375 Q 8.48291015625 0.55224609375 8.4862060546875 0.521484375 Q 8.489501953125 0.49072265625 8.489501953125 0.462158203125 Q 8.489501953125 0.443115234375 8.48876953125 0.427001953125 Q 8.488037109375 0.410888671875 8.488037109375 0.397705078125 Q 8.488037109375 0.35595703125 8.4847412109375 0.3138427734375 Q 8.4814453125 0.271728515625 8.4686279296875 0.238037109375 Q 8.455810546875 0.204345703125 8.43017578125 0.18310546875 Q 8.404541015625 0.161865234375 8.360595703125 0.161865234375 Q 8.332763671875 0.161865234375 8.3170166015625 0.1710205078125 Q 8.30126953125 0.18017578125 8.2935791015625 0.1962890625 Q 8.285888671875 0.21240234375 8.2840576171875 0.2332763671875 Q 8.2822265625 0.254150390625 8.2822265625 0.2783203125 L 8.2822265625 0.626953125 Q 8.284423828125 0.629150390625 8.296142578125 0.630615234375 Q 8.306396484375 0.632080078125 8.3272705078125 0.6331787109375 Q 8.34814453125 0.63427734375 8.3876953125 0.63427734375 M 8.45654296875 0.019775390625 Q 8.59423828125 0.019775390625 8.6964111328125 0.0516357421875 Q 8.798583984375 0.08349609375 8.8663330078125 0.1351318359375 Q 8.93408203125 0.186767578125 8.9674072265625 0.2530517578125 Q 9.000732421875 0.3193359375 9.000732421875 0.38818359375 Q 9.000732421875 0.459228515625 8.9659423828125 0.5277099609375 Q 8.93115234375 0.59619140625 8.8626708984375 0.649658203125 Q 8.794189453125 0.703125 8.6923828125 0.7357177734375 Q 8.590576171875 0.768310546875 8.45654296875 0.768310546875 Q 8.44482421875 0.768310546875 8.419921875 0.7679443359375 Q 8.39501953125 0.767578125 8.3675537109375 0.7672119140625 Q 8.340087890625 0.766845703125 8.315185546875 0.7664794921875 Q 8.290283203125 0.76611328125 8.279296875 0.765380859375 L 8.279296875 0.8759765625 Q 8.279296875 0.908935546875 8.2880859375 0.92724609375 Q 8.296875 0.945556640625 8.31005859375 0.955078125 Q 8.3232421875 0.964599609375 8.338623046875 0.96826171875 Q 8.35400390625 0.971923828125 8.3671875 0.976318359375 Q 8.38037109375 0.980712890625 8.38916015625 0.9884033203125 Q 8.39794921875 0.99609375 8.39794921875 1.013671875 Q 8.39794921875 1.105224609375 8.303466796875 1.1458740234375 Q 8.208984375 1.1865234375 8.0302734375 1.1865234375 Q 7.94384765625 1.1865234375 7.8768310546875 1.1766357421875 Q 7.809814453125 1.166748046875 7.7640380859375 1.1458740234375 Q 7.71826171875 1.125 7.6944580078125 1.092041015625 Q 7.670654296875 1.05908203125 7.670654296875 1.013671875 Q 7.670654296875 0.99609375 7.679443359375 0.9884033203125 Q 7.688232421875 0.980712890625 7.7010498046875 0.9766845703125 Q 7.7138671875 0.97265625 7.7288818359375 0.968994140625 Q 7.743896484375 0.96533203125 7.7567138671875 0.9561767578125 Q 7.76953125 0.947021484375 7.7783203125 0.929443359375 Q 7.787109375 0.911865234375 7.787109375 0.87890625 L 7.787109375 0.32666015625 Q 7.787109375 0.29443359375 7.7783203125 0.2764892578125 Q 7.76953125 0.258544921875 7.7567138671875 0.2493896484375 Q 7.743896484375 0.240234375 7.7288818359375 0.236572265625 Q 7.7138671875 0.23291015625 7.7010498046875 0.2288818359375 Q 7.688232421875 0.224853515625 7.679443359375 0.2171630859375 Q 7.670654296875 0.20947265625 7.670654296875 0.19189453125 Q 7.670654296875 0.147216796875 7.6937255859375 0.1146240234375 Q 7.716796875 0.08203125 7.761474609375 0.060791015625 Q 7.80615234375 0.03955078125 7.871337890625 0.0296630859375 Q 7.9365234375 0.019775390625 8.020751953125 0.019775390625 L 8.0302734375 0.019775390625 L 8.45654296875 0.019775390625" fill="#ffffff" fill-rule="nonzero"></path></g><g></g></g><defs><clipPath id="SvgjsClipPath1001"><path d=" M 0.6040631940695773 -2.8806496837108337 h 7.809451736860845 v 2.6306496837108337 h -7.809451736860845 Z"></path></clipPath><clipPath id="a40dae321-d7f1-493b-8713-32ed7101daadaae8e09b-47e4-4d55-b5df-4ecf743b6f6f"><path d=" M 0.6040631940695773 -0.24999999999999956 L 8.4135341558385 -0.24999999999999956 L 8.4135341558385 -2.880649683710833 L 0.6040631940695773 -2.880649683710833 Z"></path></clipPath></defs></svg>